<mxfile host="app.diagrams.net" modified="2020-09-19T12:03:46.182Z" agent="5.0 (X11)" etag="_HiQd4rYQ5mQIBIwShRY" version="13.7.3" type="github">
  <diagram id="dqWKIGA771LB80A9UhS8" name="Page-1">
    <mxGraphModel dx="1634" dy="456" grid="1" gridSize="10" guides="1" tooltips="1" connect="1" arrows="1" fold="1" page="1" pageScale="1" pageWidth="850" pageHeight="1100" math="0" shadow="0">
      <root>
        <mxCell id="0" />
        <mxCell id="1" parent="0" />
        <mxCell id="SB6s30BU1Trxl03uCjYO-21" value="module_instance" style="edgeStyle=orthogonalEdgeStyle;rounded=0;orthogonalLoop=1;jettySize=auto;html=1;exitX=0.5;exitY=1;exitDx=0;exitDy=0;entryX=0.5;entryY=0;entryDx=0;entryDy=0;align=center;" edge="1" parent="1" source="SB6s30BU1Trxl03uCjYO-1" target="SB6s30BU1Trxl03uCjYO-14">
          <mxGeometry relative="1" as="geometry" />
        </mxCell>
        <mxCell id="SB6s30BU1Trxl03uCjYO-1" value="main_storage" style="rounded=0;whiteSpace=wrap;html=1;align=center;verticalAlign=top;" vertex="1" parent="1">
          <mxGeometry x="170" y="540" width="220" height="230" as="geometry" />
        </mxCell>
        <mxCell id="SB6s30BU1Trxl03uCjYO-2" value="container_storage" style="rounded=0;whiteSpace=wrap;html=1;align=center;" vertex="1" parent="1">
          <mxGeometry x="200" y="580" width="160" height="40" as="geometry" />
        </mxCell>
        <mxCell id="SB6s30BU1Trxl03uCjYO-3" value="module_instance_storage" style="rounded=0;whiteSpace=wrap;html=1;align=center;" vertex="1" parent="1">
          <mxGeometry x="200" y="640" width="160" height="40" as="geometry" />
        </mxCell>
        <mxCell id="SB6s30BU1Trxl03uCjYO-4" value="connector_storage" style="rounded=0;whiteSpace=wrap;html=1;align=center;" vertex="1" parent="1">
          <mxGeometry x="200" y="700" width="160" height="40" as="geometry" />
        </mxCell>
        <mxCell id="SB6s30BU1Trxl03uCjYO-11" value="container" style="edgeStyle=orthogonalEdgeStyle;rounded=0;orthogonalLoop=1;jettySize=auto;html=1;entryX=1;entryY=0.5;entryDx=0;entryDy=0;align=center;" edge="1" parent="1" source="SB6s30BU1Trxl03uCjYO-7" target="SB6s30BU1Trxl03uCjYO-2">
          <mxGeometry relative="1" as="geometry" />
        </mxCell>
        <mxCell id="SB6s30BU1Trxl03uCjYO-7" value="container" style="rounded=0;whiteSpace=wrap;html=1;align=center;" vertex="1" parent="1">
          <mxGeometry x="480" y="570" width="120" height="60" as="geometry" />
        </mxCell>
        <mxCell id="SB6s30BU1Trxl03uCjYO-12" value="module_instance" style="edgeStyle=orthogonalEdgeStyle;rounded=0;orthogonalLoop=1;jettySize=auto;html=1;exitX=0;exitY=0.5;exitDx=0;exitDy=0;entryX=1;entryY=0.5;entryDx=0;entryDy=0;align=center;" edge="1" parent="1" source="SB6s30BU1Trxl03uCjYO-8" target="SB6s30BU1Trxl03uCjYO-3">
          <mxGeometry relative="1" as="geometry" />
        </mxCell>
        <mxCell id="SB6s30BU1Trxl03uCjYO-8" value="module" style="rounded=0;whiteSpace=wrap;html=1;align=center;" vertex="1" parent="1">
          <mxGeometry x="630" y="630" width="120" height="60" as="geometry" />
        </mxCell>
        <mxCell id="SB6s30BU1Trxl03uCjYO-13" value="connector" style="edgeStyle=orthogonalEdgeStyle;rounded=0;orthogonalLoop=1;jettySize=auto;html=1;exitX=0;exitY=0.5;exitDx=0;exitDy=0;entryX=1;entryY=0.5;entryDx=0;entryDy=0;align=center;" edge="1" parent="1" source="SB6s30BU1Trxl03uCjYO-9" target="SB6s30BU1Trxl03uCjYO-4">
          <mxGeometry relative="1" as="geometry" />
        </mxCell>
        <mxCell id="SB6s30BU1Trxl03uCjYO-9" value="connector" style="rounded=0;whiteSpace=wrap;html=1;align=center;" vertex="1" parent="1">
          <mxGeometry x="480" y="690" width="120" height="60" as="geometry" />
        </mxCell>
        <mxCell id="SB6s30BU1Trxl03uCjYO-18" style="edgeStyle=orthogonalEdgeStyle;rounded=0;orthogonalLoop=1;jettySize=auto;html=1;exitX=1;exitY=0.5;exitDx=0;exitDy=0;entryX=0;entryY=0.5;entryDx=0;entryDy=0;align=center;" edge="1" parent="1" source="SB6s30BU1Trxl03uCjYO-14" target="SB6s30BU1Trxl03uCjYO-15">
          <mxGeometry relative="1" as="geometry" />
        </mxCell>
        <mxCell id="SB6s30BU1Trxl03uCjYO-19" value="module_instance" style="edgeLabel;html=1;align=center;verticalAlign=middle;resizable=0;points=[];" vertex="1" connectable="0" parent="SB6s30BU1Trxl03uCjYO-18">
          <mxGeometry x="-0.1143" y="-1" relative="1" as="geometry">
            <mxPoint as="offset" />
          </mxGeometry>
        </mxCell>
        <mxCell id="SB6s30BU1Trxl03uCjYO-14" value="factory" style="rounded=0;whiteSpace=wrap;html=1;align=center;" vertex="1" parent="1">
          <mxGeometry x="220" y="850" width="120" height="60" as="geometry" />
        </mxCell>
        <mxCell id="SB6s30BU1Trxl03uCjYO-15" value="&lt;div&gt;assembler&lt;/div&gt;" style="rounded=0;whiteSpace=wrap;html=1;align=center;" vertex="1" parent="1">
          <mxGeometry x="490" y="850" width="120" height="60" as="geometry" />
        </mxCell>
        <mxCell id="SB6s30BU1Trxl03uCjYO-17" style="edgeStyle=orthogonalEdgeStyle;rounded=0;orthogonalLoop=1;jettySize=auto;html=1;exitX=1;exitY=0.5;exitDx=0;exitDy=0;entryX=0;entryY=0.5;entryDx=0;entryDy=0;align=center;" edge="1" parent="1" source="SB6s30BU1Trxl03uCjYO-16" target="SB6s30BU1Trxl03uCjYO-14">
          <mxGeometry relative="1" as="geometry" />
        </mxCell>
        <mxCell id="SB6s30BU1Trxl03uCjYO-20" value="config_item" style="edgeLabel;html=1;align=center;verticalAlign=middle;resizable=0;points=[];" vertex="1" connectable="0" parent="SB6s30BU1Trxl03uCjYO-17">
          <mxGeometry x="-0.3385" y="-2" relative="1" as="geometry">
            <mxPoint as="offset" />
          </mxGeometry>
        </mxCell>
        <mxCell id="SB6s30BU1Trxl03uCjYO-16" value="config" style="rounded=0;whiteSpace=wrap;html=1;align=center;" vertex="1" parent="1">
          <mxGeometry x="-20" y="850" width="120" height="60" as="geometry" />
        </mxCell>
      </root>
    </mxGraphModel>
  </diagram>
</mxfile>
